<?xml version="1.0" encoding="UTF-8" standalone="no"?>
<!-- Created with Inkscape (http://www.inkscape.org/) -->

<svg
   width="512"
   height="512"
   viewBox="0 0 135.46666 135.46666"
   version="1.1"
   id="svg1"
   xmlns="http://www.w3.org/2000/svg"
   xmlns:svg="http://www.w3.org/2000/svg">
  <defs
     id="defs1" />
  <g
     id="layer1"
     style="display:none">
    <rect
       style="fill:#4f46e5;fill-opacity:1;stroke-width:3.30631"
       id="rect1"
       width="142.5347"
       height="143.87253"
       x="-3.0997062"
       y="-3.9423168" />
  </g>
  <g
     id="layer2"
     style="display:inline">
    <path
       id="path3"
       style="baseline-shift:baseline;display:inline;overflow:visible;opacity:1;vector-effect:none;fill:#000000;stroke-width:1.09207;stroke-linecap:round;stroke-linejoin:bevel;enable-background:accumulate;stop-color:#000000;stop-opacity:1"
       d="m 67.732199,6.158512 c -33.942635,0 -61.573687,27.631052 -61.573687,61.573687 0,33.942641 27.631052,61.575951 61.573687,61.575951 28.545859,0 52.629031,-19.5447 59.565761,-45.949879 h -11.35231 c -2.62181,8.13163 -7.23774,15.355407 -13.27559,21.099629 V 72.437685 h 4.85899 10.64463 10.95614 c 0.11803,-1.55331 0.17833,-3.12257 0.17833,-4.705486 0,-33.942635 -27.63331,-61.573687 -61.575951,-61.573687 z m 0,10.920586 c 7.460224,0 14.536496,1.60049 20.904929,4.478056 L 67.241786,40.12345 46.73754,21.598352 c 6.391572,-2.903301 13.499159,-4.519254 20.994659,-4.519254 z M 32.854157,30.951759 V 61.517098 H 17.453822 C 18.91232,49.51931 24.541246,38.835282 32.854157,30.951759 Z m 69.815903,0.05587 c 8.28121,7.878104 13.88759,18.539954 15.34278,30.509469 H 102.67006 Z M 91.749475,33.315224 V 61.517098 H 43.775307 V 33.639157 l 19.733919,17.827571 7.238818,0.07224 z M 17.292985,72.437685 H 32.854157 V 104.51377 C 24.194024,96.300568 18.446768,85.048353 17.292985,72.437685 Z m 26.482322,0 H 91.749475 V 83.642136 H 60.395186 55.011361 v 10.764828 h 5.383825 31.354289 v 17.964146 c -7.141437,3.83972 -15.31827,6.01645 -24.017276,6.01645 -8.67471,0 -16.829939,-2.16456 -23.956892,-5.98429 z" />
  </g>
</svg>
