<?xml version="1.0" encoding="UTF-8" standalone="no"?>
<!-- Created with Inkscape (http://www.inkscape.org/) -->

<svg
   width="512"
   height="512"
   viewBox="0 0 135.46666 135.46666"
   version="1.1"
   id="svg1"
   sodipodi:docname="app-icon.svg"
   inkscape:version="1.4.3 (0d15f75, 2025-12-25)"
   xmlns:inkscape="http://www.inkscape.org/namespaces/inkscape"
   xmlns:sodipodi="http://sodipodi.sourceforge.net/DTD/sodipodi-0.dtd"
   xmlns="http://www.w3.org/2000/svg"
   xmlns:svg="http://www.w3.org/2000/svg">
  <sodipodi:namedview
     id="namedview1"
     pagecolor="#505050"
     bordercolor="#eeeeee"
     borderopacity="1"
     inkscape:showpageshadow="0"
     inkscape:pageopacity="0"
     inkscape:pagecheckerboard="0"
     inkscape:deskcolor="#505050"
     inkscape:zoom="1.5761719"
     inkscape:cx="302.94919"
     inkscape:cy="262.97893"
     inkscape:window-width="1920"
     inkscape:window-height="1009"
     inkscape:window-x="-8"
     inkscape:window-y="-8"
     inkscape:window-maximized="1"
     inkscape:current-layer="svg1" />
  <defs
     id="defs1" />
  <g
     id="layer1"
     inkscape:label="background"
     sodipodi:insensitive="true">
    <rect
       style="display:inline;fill:#4f46e5;fill-opacity:1;stroke-width:6.23719"
       id="rect1"
       width="135.46666"
       height="135.46666"
       x="0"
       y="0" />
  </g>
  <g
     id="layer2"
     style="display:inline">
    <path
       style="baseline-shift:baseline;display:inline;overflow:visible;opacity:1;vector-effect:none;fill:#ffffff;stroke-linecap:round;stroke-linejoin:bevel;enable-background:accumulate;stop-color:#000000;stop-opacity:1"
       d="M 91.447266,21.482422 67.283203,42.451172 44.148437,21.548828 35.794922,25.259766 v 42.880859 41.675785 a 5,5 0 0 0 5,5 5,5 0 0 0 5,-5 V 68.140625 36.513672 l 18.070312,16.324219 6.628907,0.06641 19.230468,-16.6875 v 73.599609 a 5,5 0 0 0 5,5 5,5 0 0 0 5,-5 V 25.259766 Z"
       id="path3" />
    <path
       style="baseline-shift:baseline;display:inline;overflow:visible;opacity:1;vector-effect:none;fill:#ffffff;stroke-linecap:square;enable-background:accumulate;stop-color:#000000;stop-opacity:1"
       d="m 56.083984,82.300781 v 9.857422 h 4.929688 29.93164 4.929688 v -9.857422 h -4.929688 -29.93164 z"
       id="path4" />
  </g>
  <g
     id="layer3"
     style="display:inline">
    <path
       id="path1"
       style="baseline-shift:baseline;display:inline;overflow:visible;opacity:1;vector-effect:none;fill:#ffffff;enable-background:accumulate;stop-color:#000000;stop-opacity:1"
       d="m 67.732296,11.349694 c -31.081038,0 -56.382602,25.301564 -56.382602,56.382602 0,31.081038 25.301564,56.384674 56.382602,56.384674 26.139251,0 48.192044,-17.89695 54.543954,-42.075987 h -10.39523 c -6.01089,18.642967 -23.468381,32.076077 -44.148724,32.076077 -24.223576,0 -44.023451,-18.430481 -46.186842,-42.075983 h 82.628546 9.74721 10.03246 c 0.10808,-1.422355 0.1633,-2.859316 0.1633,-4.308781 0,-31.081038 -25.303636,-56.382602 -56.384674,-56.382602 z m 0,9.999906 c 23.749277,0 43.248194,17.714482 46.041634,40.691571 H 21.692732 C 24.485916,39.064082 43.983019,21.3496 67.732296,21.3496 Z" />
  </g>
</svg>
